<?xml version="1.0" encoding="UTF-8"?><svg id="Modo_de_aislamiento" xmlns="http://www.w3.org/2000/svg" viewBox="0 0 4.41 4.4"><defs><style>.cls-1{fill:#f60;}</style></defs><path class="cls-1" d="M2.21,.11c1.16,0,2.09,.94,2.09,2.09,0,1.1-.84,2-1.91,2.09-.06,.01-.12,.01-.18,.01-.16,0-.31-.02-.45-.05C.81,4.04,.11,3.2,.11,2.2,.11,1.04,1.05,.11,2.21,.11m0-.11C.99,0,0,.99,0,2.2c0,1.02,.73,1.93,1.73,2.15,.15,.03,.31,.05,.48,.05,.07,0,.13,0,.2,0,1.12-.09,2-1.05,2-2.19C4.41,.99,3.42,0,2.21,0h0Z"/><path class="cls-1" d="M2.44,1.76s.1-.07,.19-.07c.09,0,.19,.01,.29,.04l.08-.44c-.17-.06-.34-.08-.52-.08s-.32,.03-.43,.09c-.11,.06-.19,.13-.23,.24-.04,.09-.06,.25-.06,.44v.17h-.35v.5h.35v1.58c.15,.03,.3,.05,.45,.05,.06,0,.12,0,.18-.01v-1.62h.46v-.5h-.46v-.16c0-.12,.02-.2,.06-.24Z"/></svg>