<?xml version="1.0" encoding="UTF-8"?><svg id="Modo_de_aislamiento" xmlns="http://www.w3.org/2000/svg" viewBox="0 0 4.41 4.41"><defs><style>.cls-1,.cls-2{fill:#f60;}.cls-2{fill-rule:evenodd;}</style></defs><path class="cls-1" d="M2.2,.11c1.16,0,2.1,.94,2.1,2.1s-.94,2.1-2.1,2.1S.11,3.36,.11,2.2,1.05,.11,2.2,.11m0-.11C.99,0,0,.99,0,2.2s.99,2.2,2.2,2.2,2.2-.99,2.2-2.2S3.42,0,2.2,0h0Z"/><path class="cls-2" d="M3.11,1.09H1.44c-.2,0-.3,.11-.3,.3v1.66c0,.19,.11,.3,.29,.3h1.68c.19,0,.3-.1,.3-.3V1.38c0-.19-.11-.3-.3-.3Zm-.18,.26q.22,0,.22,.22t-.22,.22-.22-.22,.22-.22Zm-.65,.43c.24,0,.44,.2,.44,.44,0,.24-.2,.44-.44,.44-.24,0-.44-.21-.43-.44,0-.24,.2-.44,.44-.44Zm.87,1.18c0,.11-.03,.13-.13,.13H1.53c-.1,0-.13-.03-.13-.13,0-.27,0-.55,0-.83,0-.08,.02-.09,.09-.09,.1,0,.11,0,.09,.11-.04,.35,.2,.69,.55,.76,.36,.07,.71-.15,.81-.49,.03-.11,.04-.22,.02-.33,0-.04,0-.05,.04-.05,.16-.01,.16-.01,.16,.15v.77Z"/></svg>