<?xml version="1.0" encoding="UTF-8"?><svg id="Modo_de_aislamiento" xmlns="http://www.w3.org/2000/svg" viewBox="0 0 4.41 4.41"><defs><style>.cls-1,.cls-2{fill:#f60;}.cls-2{fill-rule:evenodd;}</style></defs><path class="cls-1" d="M2.2,.11c1.16,0,2.1,.94,2.1,2.1s-.94,2.1-2.1,2.1S.11,3.36,.11,2.2,1.05,.11,2.2,.11m0-.11C.99,0,0,.99,0,2.2s.99,2.2,2.2,2.2,2.2-.99,2.2-2.2S3.42,0,2.2,0h0Z"/><g><path class="cls-2" d="M3.45,1.9c-.14-.58-.64-.98-1.24-.98-.08,0-.17,0-.24,.02-.85,.17-1.28,1.1-.87,1.86,.01,.02,.01,.04,.01,.06-.06,.2-.11,.4-.17,.59t.02,.03c.21-.06,.41-.11,.62-.16,.02,0,.03,0,.05,0,.26,.13,.54,.17,.84,.12,.7-.13,1.16-.85,.99-1.54Zm-1.06,1.33c-.06,.01-.12,.02-.15,.01-.23,0-.41-.05-.57-.15-.02-.01-.04-.02-.06,0-.12,.03-.23,.06-.34,.09-.02,0-.03,0-.02-.02,.03-.11,.06-.21,.09-.32,0-.03,0-.05-.01-.08-.23-.38-.22-.84,.04-1.19,.27-.36,.64-.51,1.08-.41,.43,.09,.71,.37,.81,.8,.14,.59-.26,1.18-.85,1.27Z"/><path class="cls-2" d="M2.54,2.8s-.09,0-.13-.02c-.29-.09-.51-.26-.69-.51-.07-.09-.13-.19-.15-.3-.03-.13,.01-.25,.11-.34,.03-.03,.13-.05,.17-.03,.01,.01,.02,.02,.03,.03,.04,.09,.07,.17,.11,.26,0,.02,0,.04,0,.05-.02,.04-.05,.07-.08,.11-.02,.02-.02,.04,0,.07,.1,.17,.25,.3,.44,.37,.03,.01,.05,0,.07-.01,.03-.04,.06-.08,.1-.12,.02-.02,.04-.03,.07-.02,.06,.03,.12,.06,.18,.08,.02,0,.03,.01,.04,.02,.06,.03,.06,.04,.06,.1,0,.13-.11,.2-.23,.23-.03,0-.06,0-.08,0Z"/></g></svg>